<?xml version="1.0" encoding="us-ascii" standalone="no"?><svg xmlns="http://www.w3.org/2000/svg" xmlns:xlink="http://www.w3.org/1999/xlink" contentStyleType="text/css" height="381px" preserveAspectRatio="none" style="width:755px;height:381px;background:#FFFFFF;" version="1.1" viewBox="0 0 755 381" width="755px" zoomAndPan="magnify"><defs/><g><!--cluster 04a7da3c5b04cad85da1eebb92315b8b--><g id="cluster_04a7da3c5b04cad85da1eebb92315b8b"><polygon fill="none" points="16,16,26,6,388,6,388,163.49,378,173.49,16,173.49,16,16" style="stroke:#181818;stroke-width:1.0;"/><line style="stroke:#181818;stroke-width:1.0;" x1="378" x2="388" y1="16" y2="6"/><line style="stroke:#181818;stroke-width:1.0;" x1="16" x2="378" y1="16" y2="16"/><line style="stroke:#181818;stroke-width:1.0;" x1="378" x2="378" y1="16" y2="173.49"/><text fill="#000000" font-family="sans-serif" font-size="14" font-weight="bold" lengthAdjust="spacing" textLength="61" x="167.5" y="31.9951">Lambda</text></g><!--cluster 6ebb7423072c5943f52c11274fd71b0b--><g id="cluster_6ebb7423072c5943f52c11274fd71b0b"><polygon fill="none" points="412,16,422,6,738,6,738,163.49,728,173.49,412,173.49,412,16" style="stroke:#181818;stroke-width:1.0;"/><line style="stroke:#181818;stroke-width:1.0;" x1="728" x2="738" y1="16" y2="6"/><line style="stroke:#181818;stroke-width:1.0;" x1="412" x2="728" y1="16" y2="16"/><line style="stroke:#181818;stroke-width:1.0;" x1="728" x2="728" y1="16" y2="173.49"/><text fill="#000000" font-family="sans-serif" font-size="14" font-weight="bold" lengthAdjust="spacing" textLength="83" x="529.5" y="31.9951">Dynamodb</text></g><!--cluster ba39a5f0aa547715c4df694144393752--><g id="cluster_ba39a5f0aa547715c4df694144393752"><polygon fill="none" points="23,207.49,33,197.49,381,197.49,381,354.97,371,364.97,23,364.97,23,207.49" style="stroke:#181818;stroke-width:1.0;"/><line style="stroke:#181818;stroke-width:1.0;" x1="371" x2="381" y1="207.49" y2="197.49"/><line style="stroke:#181818;stroke-width:1.0;" x1="23" x2="371" y1="207.49" y2="207.49"/><line style="stroke:#181818;stroke-width:1.0;" x1="371" x2="371" y1="207.49" y2="364.97"/><text fill="#000000" font-family="sans-serif" font-size="14" font-weight="bold" lengthAdjust="spacing" textLength="92" x="152" y="223.4851">Apigateway</text></g><!--entity 7dc1328340e2e4bedbd6c4c9d000c098--><g id="elem_7dc1328340e2e4bedbd6c4c9d000c098"><rect fill="#F1F1F1" height="111.4844" rx="2.5" ry="2.5" style="stroke:#181818;stroke-width:0.5;" width="341" x="31.5" y="46"/><rect fill="#F1F1F1" height="10" style="stroke:#181818;stroke-width:0.5;" width="15" x="352.5" y="51"/><rect fill="#F1F1F1" height="2" style="stroke:#181818;stroke-width:0.5;" width="4" x="350.5" y="53"/><rect fill="#F1F1F1" height="2" style="stroke:#181818;stroke-width:0.5;" width="4" x="350.5" y="57"/><text fill="#000000" font-family="sans-serif" font-size="14" font-weight="bold" lengthAdjust="spacing" textLength="301" x="46.5" y="78.9951">lambda_${var.lambda_function_name}</text><text fill="#000000" font-family="sans-serif" font-size="14" lengthAdjust="spacing" textLength="4" x="46.5" y="95.292">&#160;</text><text fill="#000000" font-family="sans-serif" font-size="14" lengthAdjust="spacing" textLength="209" x="46.5" y="111.5889">terraform name: rfping-lambda</text><text fill="#000000" font-family="sans-serif" font-size="14" lengthAdjust="spacing" textLength="253" x="46.5" y="127.8857">terraform type: aws_lambda_function</text><text fill="#000000" font-family="sans-serif" font-size="14" lengthAdjust="spacing" textLength="4" x="46.5" y="144.1826">&#160;</text></g><!--entity 1f560e1c9533968a28ce60158676dc63--><g id="elem_1f560e1c9533968a28ce60158676dc63"><rect fill="#F1F1F1" height="111.4844" rx="2.5" ry="2.5" style="stroke:#181818;stroke-width:0.5;" width="294" x="428" y="46"/><rect fill="#F1F1F1" height="10" style="stroke:#181818;stroke-width:0.5;" width="15" x="702" y="51"/><rect fill="#F1F1F1" height="2" style="stroke:#181818;stroke-width:0.5;" width="4" x="700" y="53"/><rect fill="#F1F1F1" height="2" style="stroke:#181818;stroke-width:0.5;" width="4" x="700" y="57"/><text fill="#000000" font-family="sans-serif" font-size="14" font-weight="bold" lengthAdjust="spacing" textLength="143" x="443" y="78.9951">dynamodb_Clients</text><text fill="#000000" font-family="sans-serif" font-size="14" lengthAdjust="spacing" textLength="4" x="443" y="95.292">&#160;</text><text fill="#000000" font-family="sans-serif" font-size="14" lengthAdjust="spacing" textLength="158" x="443" y="111.5889">terraform name: rftable</text><text fill="#000000" font-family="sans-serif" font-size="14" lengthAdjust="spacing" textLength="254" x="443" y="127.8857">terraform type: aws_dynamodb_table</text><text fill="#000000" font-family="sans-serif" font-size="14" lengthAdjust="spacing" textLength="4" x="443" y="144.1826">&#160;</text></g><!--entity 98ac2d1ea939df35774961a86e7b50c4--><g id="elem_98ac2d1ea939df35774961a86e7b50c4"><rect fill="#F1F1F1" height="111.4844" rx="2.5" ry="2.5" style="stroke:#181818;stroke-width:0.5;" width="325" x="39.5" y="237.49"/><rect fill="#F1F1F1" height="10" style="stroke:#181818;stroke-width:0.5;" width="15" x="344.5" y="242.49"/><rect fill="#F1F1F1" height="2" style="stroke:#181818;stroke-width:0.5;" width="4" x="342.5" y="244.49"/><rect fill="#F1F1F1" height="2" style="stroke:#181818;stroke-width:0.5;" width="4" x="342.5" y="248.49"/><text fill="#000000" font-family="sans-serif" font-size="14" font-weight="bold" lengthAdjust="spacing" textLength="175" x="54.5" y="270.4851">apigateway_RFPingAPI</text><text fill="#000000" font-family="sans-serif" font-size="14" lengthAdjust="spacing" textLength="4" x="54.5" y="286.782">&#160;</text><text fill="#000000" font-family="sans-serif" font-size="14" lengthAdjust="spacing" textLength="199" x="54.5" y="303.0789">terraform name: rfping-apigw</text><text fill="#000000" font-family="sans-serif" font-size="14" lengthAdjust="spacing" textLength="285" x="54.5" y="319.3757">terraform type: aws_api_gateway_rest_api</text><text fill="#000000" font-family="sans-serif" font-size="14" lengthAdjust="spacing" textLength="4" x="54.5" y="335.6726">&#160;</text></g><!--link 7dc1328340e2e4bedbd6c4c9d000c098 to 98ac2d1ea939df35774961a86e7b50c4--><g id="link_7dc1328340e2e4bedbd6c4c9d000c098_98ac2d1ea939df35774961a86e7b50c4"><path codeLine="29" d="M202,157.8 C202,182.72 202,212.1 202,237.03 " fill="none" id="7dc1328340e2e4bedbd6c4c9d000c098-98ac2d1ea939df35774961a86e7b50c4" style="stroke:#181818;stroke-width:1.0;"/></g><!--SRC=[XPBBQW8n58RtynH1kX8ikL-wavP2eGlfjfJX92UHWRanJcj5VFUEenKhKfSvv-JFzoM1icpMLV5TrCkiRZ2IoIjK7c52O4Me18CWWl9K1a2h45YCtZikcFBMasr6GbErJHthdXWCJ70h98qyIX_HemuoEAIK1keiUS-cqt9Cp- -sNz3T7nVfimvzqTHv3LNSJQTPriUkWzHq5TcN7aYNsW5mTfW_w_QRTkZ2UfLVH6NPHxOx2ZrjXf06_QYa1tmZkQ261-MaI8e7nhYH2Gtpz4A99QLfPC4f8Posm6s8cZ9bjT4Oj1YLy9YVFvR5i6brNQ07NyQhwAVzXv4pydbRBA6FQzYCx1w40vKeW9B6C1Ka9kqaar8uOHJ_o-ui18uiWXCEar36IASPM1sDLpJ8aHrE9-HlpulXZkUBbtyUO3- -lYenTFBVf2wk-dtXe7BpMynmTXFs1m00]--></g></svg>